# xmcd CD database file
#
# Track frame offsets:
#	150
#	47592
#	90996
#	143922
#	174124
#
# Disc length: 2946 seconds
#
# Revision: 0
# Processed by: cddbd v1.5.2PL0 Copyright (c) Steve Scherf et al.
# Submitted via: CDex 1.50
#
DISCID=310b8005
DTITLE=EST and Pat Metheny - Live Jazz Baltica Salzau CD2
DYEAR=2003
DGENRE=Jazz
TTITLE0=01-I Mean You
TTITLE1=02-When God created the Coffee Break
TTITLE2=03-Behind the Yashmak
TTITLE3=04-Believe Beleft Below
TTITLE4=05-Sprumky Sprawl
EXTD=YEAR: 2003
EXTT0=
EXTT1=
EXTT2=
EXTT3=
EXTT4=
PLAYORDER=
